<svg xmlns="http://www.w3.org/2000/svg" viewBox="0 0 364.25 186.32"><defs><style>.cls-1{fill:#fafbfb;}.cls-2{fill:#f9ff7b;}.cls-3{fill:#ffbf4d;}.cls-4{fill:#ff5050;}.cls-5{fill:#666eff;}.cls-6{fill:#52e28c;}.cls-7{fill:#bc3eff;}</style></defs><g id="Calque_2" data-name="Calque 2"><g id="OBJECTS"><path class="cls-1" d="M76.9,150.78H73.84l-4.3-10.1H62.85v10.1H60.12V127.45h9.19c2.5,0,4.35.69,5.55,2a6.62,6.62,0,0,1,1.8,4.47,7,7,0,0,1-1,3.57A5.62,5.62,0,0,1,72.32,140ZM62.85,138.31H69a4.69,4.69,0,0,0,3.6-1.28,4.4,4.4,0,0,0,1.19-3.12A3.5,3.5,0,0,0,72.48,131a4.86,4.86,0,0,0-3.17-1H62.85Z"/><path class="cls-1" d="M97.27,150.78h-3L92,144H83.29l-2.09,6.82H78.76l7.58-23.33h3.3Zm-6-9-3.61-11.21L84.1,141.78Z"/><path class="cls-1" d="M103.24,150.78h-2.93V127.45h2.93Z"/><path class="cls-1" d="M126.24,150.78H123.4l-12.06-20.33,0,1.53c0,.59,0,1.07,0,1.47v17.33h-2.36V127.45h3.66l11.28,19,0-1.62c0-.64,0-1.2,0-1.69v-15.7h2.31Z"/><path class="cls-1" d="M132.07,150.78V127.45h9.22q3.5,0,5.17,1.71a5.45,5.45,0,0,1,1.69,4q0,4-4.14,5.26a6.36,6.36,0,0,1,3.66,2.26,6,6,0,0,1,1.2,3.68,6.27,6.27,0,0,1-1.86,4.61c-1.24,1.23-3.14,1.85-5.72,1.85Zm2.82-13.33H140c2.11,0,3.52-.4,4.22-1.2a4.15,4.15,0,0,0,1.06-2.83,3.31,3.31,0,0,0-1.13-2.6,5.05,5.05,0,0,0-3.4-1h-5.82Zm0,10.77h6.25a5.14,5.14,0,0,0,3.54-1.11,3.7,3.7,0,0,0,1.25-2.89,4.89,4.89,0,0,0-.57-2.32,4,4,0,0,0-1.59-1.65,6.43,6.43,0,0,0-3.06-.58h-5.82Z"/><path class="cls-1" d="M161.27,151.26a8.13,8.13,0,0,1-7-3.5,14.27,14.27,0,0,1-2.52-8.57,14,14,0,0,1,2.64-8.76,8.78,8.78,0,0,1,13.91-.06,13.63,13.63,0,0,1,2.61,8.56,14.77,14.77,0,0,1-2.54,8.64A8.13,8.13,0,0,1,161.27,151.26Zm.07-2.37a5.38,5.38,0,0,0,4.79-2.79,13.5,13.5,0,0,0,1.72-7.19,12,12,0,0,0-1.78-7,5.56,5.56,0,0,0-4.75-2.51,5.43,5.43,0,0,0-4.75,2.72,12.91,12.91,0,0,0-1.76,7.11,12.41,12.41,0,0,0,1.78,7A5.44,5.44,0,0,0,161.34,148.89Z"/><path class="cls-1" d="M199.76,127.45l-5.61,23.33h-2.93l-5.09-18.1-4.72,18.1h-3l-5.92-23.33h3l4.67,18.91,4.95-18.91h2.38l5.34,18.91,4.35-18.91Z"/><path class="cls-1" d="M215,150.78H212.1V127.45h8.27c2.59,0,4.49.71,5.73,2.12a7.09,7.09,0,0,1,1.84,4.81,6.66,6.66,0,0,1-2,5,7.19,7.19,0,0,1-5.25,2H215Zm0-11.89h5.37a4.59,4.59,0,0,0,3.33-1.24,4.39,4.39,0,0,0,1.26-3.27,4.74,4.74,0,0,0-1.12-3.11,4,4,0,0,0-3.27-1.37H215Z"/><path class="cls-1" d="M248.33,150.78H245.4V139.67H234.59v11.11h-2.93V127.45h2.93v9.66H245.4v-9.66h2.93Z"/><path class="cls-1" d="M262.2,151.26a8.13,8.13,0,0,1-7-3.5,14.27,14.27,0,0,1-2.51-8.57,14,14,0,0,1,2.63-8.76,8.78,8.78,0,0,1,13.91-.06,13.63,13.63,0,0,1,2.61,8.56,14.77,14.77,0,0,1-2.54,8.64A8.12,8.12,0,0,1,262.2,151.26Zm.07-2.37a5.37,5.37,0,0,0,4.79-2.79,13.5,13.5,0,0,0,1.72-7.19,12,12,0,0,0-1.78-7,5.55,5.55,0,0,0-4.74-2.51,5.43,5.43,0,0,0-4.76,2.72,12.91,12.91,0,0,0-1.76,7.11,12.49,12.49,0,0,0,1.78,7A5.45,5.45,0,0,0,262.27,148.89Z"/><path class="cls-1" d="M282.23,150.78h-2.92V130h-6.68v-2.57h16.3V130h-6.7Z"/><path class="cls-1" d="M299.19,151.26a8.14,8.14,0,0,1-7-3.5,14.34,14.34,0,0,1-2.51-8.57,14.06,14.06,0,0,1,2.63-8.76,8.78,8.78,0,0,1,13.91-.06,13.64,13.64,0,0,1,2.62,8.56,14.84,14.84,0,0,1-2.54,8.64A8.13,8.13,0,0,1,299.19,151.26Zm.07-2.37A5.36,5.36,0,0,0,304,146.1a13.5,13.5,0,0,0,1.73-7.19,12,12,0,0,0-1.79-7,5.55,5.55,0,0,0-4.74-2.51,5.41,5.41,0,0,0-4.75,2.72,12.83,12.83,0,0,0-1.76,7.11,12.49,12.49,0,0,0,1.77,7A5.46,5.46,0,0,0,299.26,148.89Z"/><path class="cls-1" d="M39.3,177H41v6.16h2.44v1.42H39.3Z"/><path class="cls-1" d="M48.69,177h1.66v7.58H48.69Z"/><path class="cls-1" d="M55.46,177H57.2l1.17,5.78,1.2-5.78H61l-1.86,7.62-1.86,0Z"/><path class="cls-1" d="M66.1,177h4.6v1.3H67.76V180h2.29v1.3H67.76v1.87H70.7v1.35H66.1Z"/><path class="cls-1" d="M82.73,177h1.66v7.58H82.73Z"/><path class="cls-1" d="M90.31,177h1.85l1.94,4.71V177h1.29v7.58H93.9l-2.3-5.48v5.48H90.31Z"/><path class="cls-1" d="M111.65,181.77l1.54.1a3.25,3.25,0,0,1-.78,2,2.38,2.38,0,0,1-1.85.78,2.45,2.45,0,0,1-2.13-1,4.88,4.88,0,0,1-.73-2.86,5,5,0,0,1,.72-2.87,2.46,2.46,0,0,1,2.16-1c1.58,0,2.44,1,2.58,2.93l-1.52.11c0-1.13-.39-1.69-1-1.69a.92.92,0,0,0-.83.55,4.7,4.7,0,0,0-.31,2.1,4.49,4.49,0,0,0,.28,1.93.91.91,0,0,0,.85.52C111.19,183.29,111.54,182.78,111.65,181.77Z"/><path class="cls-1" d="M123.94,180.74c0,2.6-.92,3.91-2.75,3.91a2.37,2.37,0,0,1-2.06-1,5.08,5.08,0,0,1-.69-2.91c0-2.6.91-3.9,2.75-3.9a2.34,2.34,0,0,1,2,1A5,5,0,0,1,123.94,180.74Zm-1.76,0a5.92,5.92,0,0,0-.23-2,.8.8,0,0,0-.76-.51.79.79,0,0,0-.76.51,8.71,8.71,0,0,0,0,4.06.78.78,0,0,0,.76.53.79.79,0,0,0,.75-.5A5.64,5.64,0,0,0,122.18,180.74Z"/><path class="cls-1" d="M129.64,177h1.67v6.16h2.44v1.42h-4.11Z"/><path class="cls-1" d="M144.29,180.74c0,2.6-.92,3.91-2.75,3.91a2.36,2.36,0,0,1-2.06-1,5.08,5.08,0,0,1-.69-2.91c0-2.6.91-3.9,2.75-3.9a2.34,2.34,0,0,1,2,1A5,5,0,0,1,144.29,180.74Zm-1.76,0a5.92,5.92,0,0,0-.23-2,.8.8,0,0,0-.76-.51.79.79,0,0,0-.76.51,8.71,8.71,0,0,0,0,4.06.77.77,0,0,0,.76.53.79.79,0,0,0,.75-.5A5.64,5.64,0,0,0,142.53,180.74Z"/><path class="cls-1" d="M150,177h1.67v4.33a6.32,6.32,0,0,0,.08,1.28.91.91,0,0,0,.35.55,1.1,1.1,0,0,0,.64.18,1,1,0,0,0,.66-.2.82.82,0,0,0,.3-.55,8.5,8.5,0,0,0,.06-1.26V177h1.39v4.27a8.85,8.85,0,0,1-.15,1.9,1.82,1.82,0,0,1-.74,1.08,2.75,2.75,0,0,1-1.66.45,3.05,3.05,0,0,1-1.55-.33,1.84,1.84,0,0,1-.81-.93,6.36,6.36,0,0,1-.24-2.11Z"/><path class="cls-1" d="M161.12,177h2.38a6.76,6.76,0,0,1,1.06.07,1.79,1.79,0,0,1,.75.34,1.91,1.91,0,0,1,.59.77,2.72,2.72,0,0,1,.21,1.09,2.08,2.08,0,0,1-1.06,2l1.39,3.31h-1.81l-1-3h-.84v3h-1.66Zm1.66,1.23v2.13h.74c.65,0,1-.37,1-1.1a1.29,1.29,0,0,0-.14-.62.74.74,0,0,0-.34-.32,1.33,1.33,0,0,0-.56-.09Z"/><path class="cls-1" d="M176.49,178.6l-1.38.53c-.19-.62-.55-.94-1.07-.94a.78.78,0,0,0-.58.21.68.68,0,0,0-.22.49.62.62,0,0,0,.26.51,5.19,5.19,0,0,0,1.05.5,6.1,6.1,0,0,1,1.16.54,2.11,2.11,0,0,1,.67.72,2.17,2.17,0,0,1,.26,1.07,2.28,2.28,0,0,1-.73,1.74,2.77,2.77,0,0,1-1.95.68,2.54,2.54,0,0,1-2.64-2.08l1.46-.42c.18.76.58,1.14,1.21,1.14a1.08,1.08,0,0,0,.71-.22.74.74,0,0,0,.27-.59.78.78,0,0,0-.19-.5,2.21,2.21,0,0,0-.87-.46,8.24,8.24,0,0,1-1.3-.57,2.07,2.07,0,0,1-1-1.79,2.25,2.25,0,0,1,.66-1.67,2.39,2.39,0,0,1,1.74-.65A2.28,2.28,0,0,1,176.49,178.6Z"/><path class="cls-1" d="M182.17,182.85h1.55v1.53l-.94,1.94h-.61l.73-1.79h-.73Z"/><path class="cls-1" d="M200,181.77l1.54.1a3.2,3.2,0,0,1-.79,2,2.34,2.34,0,0,1-1.84.78,2.43,2.43,0,0,1-2.13-1,4.88,4.88,0,0,1-.74-2.86,5,5,0,0,1,.73-2.87,2.44,2.44,0,0,1,2.16-1c1.58,0,2.44,1,2.58,2.93l-1.52.11c0-1.13-.39-1.69-1.06-1.69a.94.94,0,0,0-.83.55,4.9,4.9,0,0,0-.3,2.1,4.49,4.49,0,0,0,.28,1.93.91.91,0,0,0,.85.52C199.54,183.29,199.9,182.78,200,181.77Z"/><path class="cls-1" d="M208.49,177h1.68l2.16,7.58h-1.7l-.38-1.57h-2.13l-.37,1.57h-1.53Zm1.45,4.72-.76-3.11-.74,3.11Z"/><path class="cls-1" d="M217.51,177h2.18a5.54,5.54,0,0,1,1.54.17,1.65,1.65,0,0,1,.92.75,2.65,2.65,0,0,1,.37,1.45,2.82,2.82,0,0,1-.3,1.38,1.81,1.81,0,0,1-.83.79,4.13,4.13,0,0,1-1.63.24h-.58v2.8h-1.67Zm1.67,1.23v2.25h.51c.46,0,.75-.11.88-.32a1.53,1.53,0,0,0,.2-.82,1.36,1.36,0,0,0-.15-.69.72.72,0,0,0-.36-.34,1.65,1.65,0,0,0-.57-.08Z"/><path class="cls-1" d="M227,177h4.72v1.43h-1.55v6.15h-1.66v-6.15H227Z"/><path class="cls-1" d="M236.86,177h1.67v4.33a6.32,6.32,0,0,0,.08,1.28.91.91,0,0,0,.35.55,1.1,1.1,0,0,0,.64.18,1,1,0,0,0,.66-.2.82.82,0,0,0,.3-.55,8.5,8.5,0,0,0,.06-1.26V177H242v4.27a8.85,8.85,0,0,1-.15,1.9,1.82,1.82,0,0,1-.74,1.08,2.75,2.75,0,0,1-1.66.45,3.05,3.05,0,0,1-1.55-.33,1.84,1.84,0,0,1-.81-.93,6.36,6.36,0,0,1-.24-2.11Z"/><path class="cls-1" d="M248,177h2.38a6.76,6.76,0,0,1,1.06.07,1.79,1.79,0,0,1,.75.34,1.91,1.91,0,0,1,.59.77,2.72,2.72,0,0,1,.21,1.09,2.08,2.08,0,0,1-1.06,2l1.39,3.31H251.5l-1-3h-.84v3H248Zm1.66,1.23v2.13h.74c.65,0,1-.37,1-1.1a1.29,1.29,0,0,0-.14-.62.74.74,0,0,0-.34-.32,1.33,1.33,0,0,0-.56-.09Z"/><path class="cls-1" d="M258.73,177h4.6v1.3h-2.94V180h2.29v1.3h-2.29v1.87h2.94v1.35h-4.6Z"/><path class="cls-1" d="M275.36,177H277v7.58h-1.66Z"/><path class="cls-1" d="M282.15,177h4.72v1.43h-1.55v6.15h-1.66v-6.15h-1.51Z"/><path class="cls-1" d="M298.66,177h2.59a4.75,4.75,0,0,1,1.37.15,1.42,1.42,0,0,1,.77.63,2.21,2.21,0,0,1,.32,1.22,1.54,1.54,0,0,1-1.08,1.63,1.8,1.8,0,0,1,1.28,1.86,2.08,2.08,0,0,1-.35,1.24,1.66,1.66,0,0,1-.86.68,4.94,4.94,0,0,1-1.45.17h-2.59Zm1.6,3.06h.54c.53,0,.87-.09,1-.29a1.08,1.08,0,0,0,.21-.66,1,1,0,0,0-.21-.61,1.11,1.11,0,0,0-.89-.27h-.66Zm0,3.22h.81c.77,0,1.15-.33,1.15-1a.94.94,0,0,0-.28-.78,1.39,1.39,0,0,0-.87-.22h-.81Z"/><path class="cls-1" d="M314.68,180.2l1.24.22a7.38,7.38,0,0,1-1,2.42,1.08,1.08,0,0,0,.77.41h.26v1.29a2.52,2.52,0,0,1-.58.08,2,2,0,0,1-1.47-.72,3.2,3.2,0,0,1-2.06.76,2.17,2.17,0,0,1-2.41-2.24,2.36,2.36,0,0,1,1.72-2.19,3,3,0,0,1-.71-1.69,1.57,1.57,0,0,1,.56-1.19,2.08,2.08,0,0,1,1.44-.5,1.91,1.91,0,0,1,1.42.52,1.75,1.75,0,0,1,.52,1.29,2,2,0,0,1-1.31,1.82l1,1.39A5.35,5.35,0,0,0,314.68,180.2Zm-2.93.9a1.38,1.38,0,0,0-.77,1.21,1.08,1.08,0,0,0,.28.78,1,1,0,0,0,.8.31,1.46,1.46,0,0,0,1.06-.45Zm.65-1.5a1.16,1.16,0,0,0,.68-1,.68.68,0,0,0-.15-.45.5.5,0,0,0-.44-.19.55.55,0,0,0-.43.17.57.57,0,0,0-.16.42A2.1,2.1,0,0,0,312.4,179.6Z"/><path class="cls-1" d="M320.72,177h1.7l.8,5.24,1-5.24h1.52l.94,5.27.93-5.27H329l-1.63,7.62h-1.49l-1-5.27-1,5.27h-1.48Z"/><rect class="cls-1" y="181.21" width="31.66" height="0.41"/><rect class="cls-1" x="332.6" y="181.21" width="31.66" height="0.41"/><path class="cls-2" d="M192.3,35.92l-20-34.71A55,55,0,0,0,132.2,35.92Z"/><path class="cls-3" d="M204.49,52.83l20-34.7A55,55,0,0,0,174.44.79Z"/><path class="cls-4" d="M236,71.84a55,55,0,0,0-10-52l-30,52Z"/><path class="cls-5" d="M163,57l-20,34.7a55,55,0,0,0,50.08,17.34Z"/><path class="cls-6" d="M171.56,38H131.48a55,55,0,0,0,10,52Z"/><path class="cls-7" d="M175.19,73.93l20,34.71a55,55,0,0,0,40.06-34.71Z"/></g></g></svg>